<svg xmlns="http://www.w3.org/2000/svg"
     viewBox="0 0 11.641666 11.641667"
     height="44"
     width="44">
    <g transform="translate(0,-285.35832)">
        <path d="m 5.825466,285.47315 c -3.1732618,0 -5.746091,2.57278 -5.746091,5.74668 0,2.53891 1.6464273,4.6926 3.9299761,5.45283 0.2875166,0.0526 0.3922924,-0.12489 0.3922924,-0.27729 0,-0.13617 -0.00494,-0.49776 -0.00776,-0.97718 -1.5984492,0.34713 -1.9357075,-0.77046 -1.9357075,-0.77046 -0.2614104,-0.66356 -0.63818,-0.84031 -0.63818,-0.84031 -0.5217628,-0.35665 0.039511,-0.3496 0.039511,-0.3496 0.5767963,0.0409 0.8801875,0.59232 0.8801875,0.59232 0.5125904,0.87805 1.3451524,0.6244 1.6725333,0.47765 0.052211,-0.37147 0.2003793,-0.62476 0.364775,-0.76834 -1.2760076,-0.14499 -2.6176323,-0.63817 -2.6176323,-2.84019 0,-0.62723 0.2240157,-1.14015 0.5916131,-1.54197 -0.059268,-0.14534 -0.2564715,-0.72953 0.056092,-1.5208 0,0 0.4826039,-0.15452 1.5804574,0.58913 0.458262,-0.12736 0.9500382,-0.19121 1.4386392,-0.19333 0.4878956,0.002 0.9796718,0.066 1.4386398,0.19333 1.0971474,-0.74365 1.5786932,-0.58913 1.5786932,-0.58913 0.3136217,0.79127 0.1164169,1.37546 0.057151,1.5208 0.3683031,0.40182 0.5909069,0.91474 0.5909069,1.54197 0,2.20767 -1.343741,2.69343 -2.6239821,2.8356 0.2063771,0.17745 0.3901758,0.52811 0.3901758,1.06432 0,0.76799 -0.00706,1.38781 -0.00706,1.57619 0,0.15381 0.1033647,0.33267 0.3951143,0.27658 2.2817846,-0.76164 3.9267989,-2.91391 3.9267989,-5.45212 0,-3.1739 -2.5731801,-5.74668 -5.7471473,-5.74668"/>
    </g>
</svg>
