<svg xmlns="http://www.w3.org/2000/svg"
     viewBox="0 0 32 24"
     height="24"
     width="32"
     xml:space="preserve">
    <defs>
        <clipPath id="clipPath20"
                  clipPathUnits="userSpaceOnUse">
            <path d="M 0,0.061 H 23.398 V 18 H 0 Z"/>
        </clipPath>
        <clipPath id="clipPath30"
                  clipPathUnits="userSpaceOnUse">
            <path d="M 0,0 H 24 V 18 H 0 Z"/>
        </clipPath>
    </defs>
    <g transform="matrix(1.3333333,0,0,-1.3333333,0,24)">
        <g>
            <g clip-path="url(#clipPath20)">
                <path style="fill:#231f20;fill-opacity:1;fill-rule:nonzero;stroke:none"
                      d="M 15.337,2.661 H 12.67 v 4.177 c 0,0.997 -0.02,2.278 -1.388,2.278 -1.389,0 -1.601,-1.085 -1.601,-2.205 V 2.661 H 7.014 v 8.59 h 2.559 v -1.173 h 0.036 c 0.357,0.675 1.228,1.387 2.527,1.387 2.702,0 3.201,-1.779 3.201,-4.093 z M 4.004,12.426 c -0.858,0 -1.549,0.693 -1.549,1.548 0,0.854 0.691,1.547 1.549,1.547 0.853,0 1.548,-0.693 1.548,-1.547 0,-0.855 -0.695,-1.548 -1.548,-1.548 z M 2.667,11.251 H 5.34 V 2.661 H 2.667 Z m 14,6.749 H 1.327 C 0.595,18 0,17.418 0,16.703 V 1.298 C 0,0.58 0.595,0 1.327,0 h 15.34 C 17.4,0 18,0.58 18,1.298 V 16.703 C 18,17.418 17.4,18 16.667,18"/></g></g>
        <g>
            <g clip-path="url(#clipPath30)">
                <path style="fill:#231f20;fill-opacity:1;fill-rule:nonzero;stroke:none"
                      d="m 19.193,4.574 h 0.615 V 2.661 h 0.334 v 1.913 h 0.612 V 4.908 H 19.193 V 4.574"/>
                <path style="fill:#231f20;fill-opacity:1;fill-rule:nonzero;stroke:none"
                      d="M 22.923,4.908 22.268,3.259 21.613,4.908 H 21.138 V 2.661 h 0.332 v 1.71 l 0.687,-1.71 h 0.222 l 0.687,1.71 v -1.71 h 0.332 v 2.247 h -0.475"/>
            </g>
        </g>
    </g>
</svg>
