<?xml version="1.0" encoding="iso-8859-1"?>
<!-- Generator: Adobe Illustrator 19.0.0, SVG Export Plug-In . SVG Version: 6.00 Build 0)  -->
<svg version="1.1" id="Layer_1" xmlns="http://www.w3.org/2000/svg" xmlns:xlink="http://www.w3.org/1999/xlink" x="0px" y="0px"
	 viewBox="0 0 512 512" style="enable-background:new 0 0 512 512;" xml:space="preserve">
<g>
	<g>
		<path d="M163.575,120.725c-5.855,0-10.601,4.747-10.601,10.601c0,6.132-4.993,11.12-11.131,11.12
			c-6.132,0-11.121-4.988-11.121-11.12c0-5.854-4.746-10.601-10.601-10.601s-10.601,4.747-10.601,10.601
			c0,17.823,14.501,32.323,32.324,32.323c17.829,0,32.334-14.501,32.334-32.323C174.177,125.472,169.431,120.725,163.575,120.725z"
			/>
	</g>
</g>
<g>
	<g>
		<path d="M392.821,120.725c-5.855,0-10.601,4.747-10.601,10.601c0,6.132-4.993,11.12-11.131,11.12
			c-6.132,0-11.121-4.988-11.121-11.12c0-5.854-4.746-10.601-10.601-10.601s-10.601,4.747-10.601,10.601
			c0,17.823,14.501,32.323,32.324,32.323c17.829,0,32.334-14.501,32.334-32.323C403.422,125.472,398.676,120.725,392.821,120.725z"
			/>
	</g>
</g>
<g>
	<g>
		<path d="M228.785,149.518c-5.855,0-10.601,4.747-10.601,10.601v2.809c0,5.854,4.746,10.601,10.601,10.601
			s10.601-4.747,10.601-10.601v-2.809C239.386,154.265,234.64,149.518,228.785,149.518z"/>
	</g>
</g>
<g>
	<g>
		<path d="M279.947,149.518c-5.855,0-10.601,4.747-10.601,10.601v2.809c0,5.854,4.746,10.601,10.601,10.601
			s10.601-4.747,10.601-10.601v-2.809C290.549,154.265,285.802,149.518,279.947,149.518z"/>
	</g>
</g>
<g>
	<g>
		<path d="M502.444,261.1c-5.765-1.018-11.266,2.828-12.285,8.595c-0.229,1.295-0.482,2.606-0.76,3.931
			c-1.199,5.73,2.474,11.349,8.206,12.548c0.733,0.154,1.462,0.227,2.182,0.227c4.912,0,9.32-3.434,10.366-8.432
			c0.322-1.539,0.62-3.081,0.885-4.583C512.057,267.62,508.209,262.12,502.444,261.1z"/>
	</g>
</g>
<g>
	<g>
		<path d="M511.832,239.511c-2.985-16.696-11.316-24.532-17.782-28.165c-27.66-15.526-72.402,15.28-104.078,71.667
			c-1.905,3.389-3.67,6.937-5.313,10.599v-17.982c18.413-21.235,21.407-47.102,21.878-67.569v-0.01
			c0.112-5.056,0.077-9.851,0.043-14.49c-0.015-2.076-0.03-4.101-0.03-6.068c0-1.548-0.065-3.103-0.193-4.656
			c14.773-11.051,23.696-28.556,23.696-47.248c0-32.514-26.452-58.965-58.965-58.965c-20.968,0-40.316,11.357-50.796,29.063
			c-19.809-5.497-41.677-8.379-63.827-8.379c-22.143,0-44.009,2.884-63.816,8.379c-10.479-17.705-29.832-29.063-50.806-29.063
			c-32.513,0-58.965,26.452-58.965,58.965c0,18.688,8.923,36.192,23.7,47.244c-0.131,1.561-0.197,3.115-0.197,4.66
			c0,1.967-0.015,3.992-0.03,6.068c-0.034,4.639-0.069,9.434,0.043,14.5c0.472,20.473,3.468,46.35,21.889,67.582v17.968
			c-1.643-3.655-3.398-7.208-5.302-10.596c-31.676-56.389-76.42-87.203-104.082-71.667c-14.383,8.08-20.904,26.603-18.362,52.154
			c2.241,22.531,11.275,48.815,25.433,74.009c17.388,30.961,51.588,58.899,76.808,76.662H38.436
			c-5.855,0-10.601,4.747-10.601,10.601c0,5.854,4.746,10.601,10.601,10.601h100.3c0.014,0,0.028-0.002,0.041-0.002
			c0.011,0,0.022,0.002,0.033,0.002s0.022-0.002,0.033-0.002c0.014,0,0.028,0.002,0.041,0.002h235.171
			c0.014,0,0.029-0.002,0.042-0.002s0.029,0.002,0.042,0.002h100.311c5.855,0,10.601-4.747,10.601-10.601
			c0-5.854-4.746-10.601-10.601-10.601h-64.279c25.22-17.763,59.419-45.701,76.807-76.661c5.292-9.416,9.909-19.062,13.724-28.669
			c2.159-5.443-0.5-11.605-5.942-13.766c-5.441-2.161-11.604,0.5-13.765,5.941c-3.466,8.73-7.671,17.515-12.501,26.11
			c-18.463,32.873-60.484,63.401-83.603,78.512c0.88-27.607,5.094-79.374,23.565-112.242c27.992-49.831,62.672-70.606,75.209-63.566
			c4.499,2.528,6.45,8.689,7.295,13.412c1.03,5.762,6.539,9.597,12.302,8.569C509.027,250.783,512.864,245.276,511.832,239.511z
			 M44.456,327.125c-12.757-22.7-20.86-46.041-22.818-65.721c-1.609-16.174,1.25-27.976,7.647-31.569
			c1.583-0.889,3.518-1.335,5.748-1.335c15.439,0,45.004,21.358,69.464,64.899c0,0.001,0,0.001,0,0.001
			c18.55,33.01,22.722,85.017,23.581,112.261C104.971,390.569,62.955,360.063,44.456,327.125z M127.528,201.539
			c-0.006-2.648,0.004-5.266,0.022-7.823c0.016-2.129,0.031-4.207,0.031-6.223c0-2.482,0.278-5.033,0.825-7.583
			c0.971-4.528-1.109-9.162-5.137-11.445c-11.835-6.712-19.188-19.308-19.188-32.877c0-20.822,16.94-37.762,37.762-37.762
			c15.589,0,29.78,9.798,35.313,24.381c2.011,5.299,7.832,8.079,13.219,6.311c19.944-6.549,42.798-10.009,66.09-10.009
			c23.3,0,46.156,3.461,66.1,10.009c5.387,1.769,11.208-1.012,13.219-6.311c5.534-14.583,19.721-24.381,35.303-24.381
			c20.822,0,37.762,16.94,37.762,37.762c0,13.572-7.349,26.17-19.18,32.876c-4.029,2.284-6.109,6.919-5.137,11.447
			c0.54,2.516,0.814,5.066,0.814,7.581c0,2.016,0.015,4.094,0.031,6.223c0.019,2.558,0.029,5.178,0.022,7.828
			c-15.306,8.113-62.131,30.187-96.601,17.069c-20.846-7.937-43.81-7.936-64.664-0.001
			C189.651,231.733,142.813,209.643,127.528,201.539z M177.272,414.172h-27.786V293.263c8.109,4.908,17.383,9.014,27.786,12.279
			V414.172z M316.416,414.172H198.475V310.756c16.864,3.162,36.293,4.77,57.99,4.77c22.542,0,42.629-1.733,59.951-5.146V414.172z
			 M363.455,414.172h-25.836V304.918c9.612-3.156,18.234-7.055,25.836-11.659V414.172z M366.424,264.171
			c-9.692,10.023-23.889,17.639-42.202,22.638c-18.237,4.986-41.034,7.513-67.757,7.513c-25.834,0-48.013-2.363-65.926-7.028
			c-19.22-4.994-34.035-12.774-44.037-23.127c-10.859-11.221-15.504-24.765-17.496-38.204c23.62,10.92,66.786,26.119,102.668,12.463
			c15.99-6.085,33.597-6.086,49.58,0.001c10.134,3.856,20.844,5.41,31.537,5.41c27.162,0,54.176-10.035,71.13-17.871
			C381.929,239.407,377.284,252.95,366.424,264.171z"/>
	</g>
</g>
<g>
</g>
<g>
</g>
<g>
</g>
<g>
</g>
<g>
</g>
<g>
</g>
<g>
</g>
<g>
</g>
<g>
</g>
<g>
</g>
<g>
</g>
<g>
</g>
<g>
</g>
<g>
</g>
<g>
</g>
</svg>
